<svg width="1200" height="630" viewBox="0 0 1200 630" fill="none" xmlns="http://www.w3.org/2000/svg">
    <!-- Background -->
    <rect width="1200" height="630" fill="#0a1628"/>
    
    <!-- Gradient overlay -->
    <rect width="1200" height="630" fill="url(#bgGrad)"/>
    
    <!-- Emblem -->
    <g transform="translate(500, 120)">
        <circle cx="100" cy="100" r="95" stroke="#d4af37" stroke-width="3" fill="none"/>
        <path d="M100 20L130 45V95L100 120L70 95V45L100 20Z" fill="#d4af37"/>
        <path d="M100 100L130 125V175L100 200L70 175V125L100 100Z" fill="#d4af37" opacity="0.5"/>
        <rect x="90" y="70" width="20" height="55" fill="#d4af37"/>
        <circle cx="100" cy="55" r="18" fill="#0a1628" stroke="#d4af37" stroke-width="2"/>
    </g>
    
    <!-- Title -->
    <text x="600" y="400" text-anchor="middle" fill="#ffffff" font-family="serif" font-size="72" font-weight="700">
        DOJ San Andreas
    </text>
    
    <!-- Subtitle -->
    <text x="600" y="460" text-anchor="middle" fill="#d4af37" font-family="sans-serif" font-size="28" font-weight="500">
        Departament Sprawiedliwości
    </text>
    
    <!-- Bottom line -->
    <text x="600" y="540" text-anchor="middle" fill="rgba(255,255,255,0.6)" font-family="sans-serif" font-size="20">
        Oficjalna dokumentacja prawna Stanu San Andreas
    </text>
    
    <!-- Gold accent lines -->
    <rect x="350" y="480" width="500" height="2" fill="url(#lineGrad)"/>
    
    <defs>
        <linearGradient id="bgGrad" x1="0" y1="0" x2="1200" y2="630">
            <stop offset="0%" stop-color="rgba(212, 175, 55, 0.1)"/>
            <stop offset="50%" stop-color="transparent"/>
            <stop offset="100%" stop-color="rgba(26, 58, 92, 0.2)"/>
        </linearGradient>
        <linearGradient id="lineGrad" x1="0" y1="0" x2="500" y2="0">
            <stop offset="0%" stop-color="transparent"/>
            <stop offset="50%" stop-color="#d4af37"/>
            <stop offset="100%" stop-color="transparent"/>
        </linearGradient>
    </defs>
</svg>
